<svg width="65" height="66" viewBox="0 0 65 66" fill="none" xmlns="http://www.w3.org/2000/svg">
<rect y="0.5" width="65" height="65" rx="10" fill="#E1E1E1"/>
<path d="M40.6251 32.9999V30.2916H37.9168V27.5833H35.2084V24.8749H32.5001V22.1666H29.7918V19.4583H27.0834V16.7499H24.3751V43.8333H27.0834V41.1249H29.7918V38.4166H32.5001V35.7083H43.3334V32.9999H40.6251Z" fill="#ECECEC"/>
<path d="M24.3752 43.8333H27.0835V46.5416H24.3752V49.2499H21.6668V11.3333H24.3752V14.0416H27.0835V16.7499H24.3752V43.8333ZM29.7918 19.4583V16.7499H27.0835V19.4583H29.7918ZM32.5002 22.1666V19.4583H29.7918V22.1666H32.5002ZM35.2085 24.8749V22.1666H32.5002V24.8749H35.2085ZM29.7918 41.1249H32.5002V38.4166H29.7918V41.1249ZM27.0835 43.8333H29.7918V41.1249H27.0835V43.8333ZM37.9168 27.5833V24.8749H35.2085V27.5833H37.9168ZM40.6252 30.2916V27.5833H37.9168V30.2916H40.6252ZM43.3335 32.9999V30.2916H40.6252V32.9999H43.3335ZM46.0418 35.7083V32.9999H43.3335V35.7083H32.5002V38.4166H48.7502V35.7083H46.0418Z" fill="#1A1A1A"/>
<path d="M21.6667 49.2499H24.3751V51.9582H21.6667V54.6666H18.9584V14.0416H21.6667V49.2499ZM32.5001 38.4166V41.1249H46.0417V38.4166H32.5001ZM29.7917 43.8332H32.5001V41.1249H29.7917V43.8332ZM27.0834 46.5416H29.7917V43.8332H27.0834V46.5416ZM24.3751 49.2499H27.0834V46.5416H24.3751V49.2499Z" fill="#4285F4"/>
</svg>
