<svg width="65" height="65" viewBox="0 0 65 65" fill="none" xmlns="http://www.w3.org/2000/svg">
<rect width="65" height="65" rx="10" fill="#1A1A1A"/>
<path d="M40.6251 32.4999V29.7916H37.9168V27.0832H35.2084V24.3749H32.5001V21.6666H29.7918V18.9582H27.0834V16.2499H24.3751V43.3332H27.0834V40.6249H29.7918V37.9166H32.5001V35.2082H43.3334V32.4999H40.6251Z" fill="#1A1A1A"/>
<path d="M24.3752 43.3333H27.0835V46.0416H24.3752V48.7499H21.6668V10.8333H24.3752V13.5416H27.0835V16.2499H24.3752V43.3333ZM29.7918 18.9583V16.2499H27.0835V18.9583H29.7918ZM32.5002 21.6666V18.9583H29.7918V21.6666H32.5002ZM35.2085 24.3749V21.6666H32.5002V24.3749H35.2085ZM29.7918 40.6249H32.5002V37.9166H29.7918V40.6249ZM27.0835 43.3333H29.7918V40.6249H27.0835V43.3333ZM37.9168 27.0833V24.3749H35.2085V27.0833H37.9168ZM40.6252 29.7916V27.0833H37.9168V29.7916H40.6252ZM43.3335 32.4999V29.7916H40.6252V32.4999H43.3335ZM46.0418 35.2083V32.4999H43.3335V35.2083H32.5002V37.9166H48.7502V35.2083H46.0418Z" fill="#F2F2F2"/>
<path d="M21.6667 48.7499H24.3751V51.4583H21.6667V54.1666H18.9584V13.5416H21.6667V48.7499ZM32.5001 37.9166V40.6249H46.0417V37.9166H32.5001ZM29.7917 43.3333H32.5001V40.6249H29.7917V43.3333ZM27.0834 46.0416H29.7917V43.3333H27.0834V46.0416ZM24.3751 48.7499H27.0834V46.0416H24.3751V48.7499Z" fill="#4285F4"/>
</svg>
