<svg width="77" height="77" viewBox="0 0 77 77" fill="none" xmlns="http://www.w3.org/2000/svg">
<g filter="url(#filter0_d_705_191)">
<rect x="6" y="6" width="65" height="65" rx="15.9792" fill="#1A1A1A"/>
<path d="M46.6251 38.4999V35.7916H43.9168V33.0833H41.2084V30.3749H38.5001V27.6666H35.7918V24.9583H33.0834V22.2499H30.3751V49.3333H33.0834V46.6249H35.7918V43.9166H38.5001V41.2083H49.3334V38.4999H46.6251Z" fill="#1A1A1A"/>
<path d="M30.3752 49.3333H33.0835V52.0416H30.3752V54.7499H27.6668V16.8333H30.3752V19.5416H33.0835V22.2499H30.3752V49.3333ZM35.7918 24.9583V22.2499H33.0835V24.9583H35.7918ZM38.5002 27.6666V24.9583H35.7918V27.6666H38.5002ZM41.2085 30.3749V27.6666H38.5002V30.3749H41.2085ZM35.7918 46.6249H38.5002V43.9166H35.7918V46.6249ZM33.0835 49.3333H35.7918V46.6249H33.0835V49.3333ZM43.9168 33.0833V30.3749H41.2085V33.0833H43.9168ZM46.6252 35.7916V33.0833H43.9168V35.7916H46.6252ZM49.3335 38.4999V35.7916H46.6252V38.4999H49.3335ZM52.0418 41.2083V38.4999H49.3335V41.2083H38.5002V43.9166H54.7502V41.2083H52.0418Z" fill="#F2F2F2"/>
<path d="M27.6667 54.7499H30.3751V57.4582H27.6667V60.1666H24.9584V19.5416H27.6667V54.7499ZM38.5001 43.9166V46.6249H52.0417V43.9166H38.5001ZM35.7917 49.3332H38.5001V46.6249H35.7917V49.3332ZM33.0834 52.0416H35.7917V49.3332H33.0834V52.0416ZM30.3751 54.7499H33.0834V52.0416H30.3751V54.7499Z" fill="#4285F4"/>
</g>
<defs>
<filter id="filter0_d_705_191" x="0" y="0" width="77" height="77" filterUnits="userSpaceOnUse" color-interpolation-filters="sRGB">
<feFlood flood-opacity="0" result="BackgroundImageFix"/>
<feColorMatrix in="SourceAlpha" type="matrix" values="0 0 0 0 0 0 0 0 0 0 0 0 0 0 0 0 0 0 127 0" result="hardAlpha"/>
<feOffset/>
<feGaussianBlur stdDeviation="3"/>
<feComposite in2="hardAlpha" operator="out"/>
<feColorMatrix type="matrix" values="0 0 0 0 0 0 0 0 0 0 0 0 0 0 0 0 0 0 0.15 0"/>
<feBlend mode="normal" in2="BackgroundImageFix" result="effect1_dropShadow_705_191"/>
<feBlend mode="normal" in="SourceGraphic" in2="effect1_dropShadow_705_191" result="shape"/>
</filter>
</defs>
</svg>
