<svg width="24" height="24" viewBox="0 0 24 24" fill="none" xmlns="http://www.w3.org/2000/svg">
<g clip-path="url(#clip0_704_14)">
<rect width="24" height="24" rx="5" fill="#1A1A1A"/>
<path d="M15 12V11H14V9.99997H13V8.99997H12V7.99997H11V6.99997H10V5.99997H9.00003V16H10V15H11V14H12V13H16V12H15Z" fill="#1A1A1A"/>
<path d="M9.00006 16H10.0001V17H9.00006V18H8.00006V3.99997H9.00006V4.99997H10.0001V5.99997H9.00006V16ZM11.0001 6.99997V5.99997H10.0001V6.99997H11.0001ZM12.0001 7.99997V6.99997H11.0001V7.99997H12.0001ZM13.0001 8.99997V7.99997H12.0001V8.99997H13.0001ZM11.0001 15H12.0001V14H11.0001V15ZM10.0001 16H11.0001V15H10.0001V16ZM14.0001 9.99997V8.99997H13.0001V9.99997H14.0001ZM15.0001 11V9.99997H14.0001V11H15.0001ZM16.0001 12V11H15.0001V12H16.0001ZM17.0001 13V12H16.0001V13H12.0001V14H18.0001V13H17.0001Z" fill="#F2F2F2"/>
<path d="M8.00003 18H9.00003V19H8.00003V20H7.00003V4.99997H8.00003V18ZM12 14V15H17V14H12ZM11 16H12V15H11V16ZM10 17H11V16H10V17ZM9.00003 18H10V17H9.00003V18Z" fill="#4285F4"/>
</g>
<defs>
<clipPath id="clip0_704_14">
<rect width="24" height="24" fill="white"/>
</clipPath>
</defs>
</svg>
