<svg width="18" height="18" viewBox="0 0 18 18" fill="none" xmlns="http://www.w3.org/2000/svg">
<g clip-path="url(#clip0_6225_461)">
<path d="M12 9C12 9.1309 11.9742 9.26053 11.924 9.38142C11.8738 9.50232 11.8002 9.61212 11.7075 9.7045L7.71601 13.6945C7.62772 13.7993 7.51884 13.8848 7.39612 13.9458C7.27341 14.0068 7.13947 14.0419 7.00262 14.0489C6.86578 14.0559 6.72894 14.0348 6.60062 13.9867C6.47229 13.9387 6.3552 13.8648 6.25662 13.7696C6.15805 13.6744 6.08008 13.56 6.02757 13.4335C5.97505 13.3069 5.94911 13.1709 5.95135 13.0339C5.95359 12.8969 5.98396 12.7618 6.04059 12.637C6.09721 12.5122 6.17887 12.4004 6.28051 12.3085L6.30501 12.284L9.59051 9L6.30451 5.715C6.13458 5.52692 6.04242 5.28132 6.04666 5.02788C6.05091 4.77443 6.15124 4.53206 6.32737 4.34977C6.5035 4.16748 6.74228 4.05888 6.99542 4.04592C7.24857 4.03297 7.49719 4.11664 7.69101 4.28L7.71551 4.3045L11.707 8.2945C11.8 8.38696 11.8737 8.4969 11.924 8.61798C11.9743 8.73906 12.0001 8.86889 12 9Z" fill="black"/>
</g>
<defs>
<clipPath id="clip0_6225_461">
<rect width="18" height="18" fill="white"/>
</clipPath>
</defs>
</svg>
