<svg width="18" height="18" viewBox="0 0 18 18" fill="none" xmlns="http://www.w3.org/2000/svg">
<g clip-path="url(#clip0_6225_465)">
<path d="M4 7.01001C4.00063 6.8127 4.05962 6.61998 4.16955 6.45612C4.27947 6.29226 4.43542 6.16458 4.61775 6.08915C4.80008 6.01373 5.00065 5.99393 5.19421 6.03225C5.38777 6.07058 5.56566 6.1653 5.7055 6.30451L8.9945 9.59051L12.2835 6.30451C12.471 6.13092 12.7177 6.03566 12.9732 6.03828C13.2287 6.0409 13.4734 6.1412 13.6573 6.31859C13.8412 6.49598 13.9501 6.73702 13.9619 6.99223C13.9736 7.24744 13.8873 7.49747 13.7205 7.69101L13.696 7.71551L9.7 11.7075C9.51253 11.8945 9.25855 11.9995 8.99375 11.9995C8.72895 11.9995 8.47497 11.8945 8.2875 11.7075L4.293 7.71601C4.20001 7.62347 4.12625 7.51345 4.07596 7.39228C4.02568 7.27112 3.99986 7.1412 4 7.01001Z" fill="black"/>
</g>
<defs>
<clipPath id="clip0_6225_465">
<rect width="18" height="18" fill="white"/>
</clipPath>
</defs>
</svg>
