<svg width="18" height="18" viewBox="0 0 18 18" fill="none" xmlns="http://www.w3.org/2000/svg">
<path d="M5 6H1.5C1.36739 6 1.24021 6.05268 1.14645 6.14645C1.05268 6.24021 1 6.36739 1 6.5V16.5C1 16.6326 1.05268 16.7598 1.14645 16.8536C1.24021 16.9473 1.36739 17 1.5 17H11.5C11.6326 17 11.7598 16.9473 11.8536 16.8536C11.9473 16.7598 12 16.6326 12 16.5V13H5.5C5.36739 13 5.24021 12.9473 5.14645 12.8536C5.05268 12.7598 5 12.6326 5 12.5V6Z" fill="black"/>
<path d="M7 11H16V2H7V11ZM17 11.5L16.9902 11.6006C16.9503 11.7961 16.7961 11.9503 16.6006 11.9902L16.5 12H6.5C6.25829 12 6.05629 11.8286 6.00977 11.6006L6 11.5V1.5C6 1.22386 6.22386 1 6.5 1H16.5L16.6006 1.00977C16.8286 1.05629 17 1.25829 17 1.5V11.5Z" fill="black"/>
</svg>
