<?xml version="1.0" encoding="UTF-8"?>
<svg id="ImportedIcons" xmlns="http://www.w3.org/2000/svg" width="18" height="18" viewBox="0 0 18 18">
  <defs>
    <style>
      .fill {
        fill: #464646;
      }
    </style>
  </defs>
  <rect id="Canvas" fill="#ff13dc" opacity="0" width="18" height="18" />
  <path class="fill" d="m2,9h1v3h-1v-3Zm1,6v-1h-1v1.5555c0,.24549.19901.4445.4445.4445h1.5555v-1h-1Zm3,1h3v-1h-3v1Zm9-7h1v-3h-1v3Zm.5555-7h-1.5555v1h1v1h1v-1.5555c0-.24549-.19901-.4445-.4445-.4445Zm-6.5555,1h3v-1h-3v1ZM1.10295,1.97065l14.92632,14.92632c.15973.15973.41869.15972.57841,0l.28956-.28956c.15972-.15972.15973-.41869,0-.57841L1.97092,1.10268c-.15972-.15972-.41869-.15972-.57841,0l-.28956.28956c-.15972.15972-.15972.41869,0,.57841Zm14.89705,11.74835v-2.719h-1v1.719l1,1Zm-3.282,1.281h-1.718v1h2.718l-1-1ZM2,4.281v2.719h1v-1.719l-1-1Zm3.281-1.281h1.719v-1h-2.719l1,1Z"/>
</svg>