<?xml version="1.0" encoding="UTF-8"?>
<svg id="ImportedIcons" xmlns="http://www.w3.org/2000/svg" width="18" height="18" viewBox="0 0 18 18">
  <defs>
    <style>
      .fill {
        fill: #464646;
      }
    </style>
  </defs>
  <rect id="Canvas" fill="#ff13dc" opacity="0" width="18" height="18" />
  <path class="fill" d="m1.10261,1.39259l.28956-.28956c.15972-.15972.41869-.15972.57841,0l14.92632,14.92632c.15973.15973.15972.41869,0,.57841l-.28956.28956c-.15972.15972-.41869.15973-.57841,0L1.10261,1.971c-.15972-.15972-.15972-.41869,0-.57841Zm14.68189,9.33241c-.17575.68777-.45583,1.34456-.8305,1.9475l.724.724c.4922-.74259.85594-1.56271,1.076-2.426l-.9695-.2455Zm-1.2345-5.9935c.06579.08516.13.1725.191.2605l.821-.5715c-.07033-.1-.14323-.2002-.2195-.3-.50556-.66159-1.11459-1.23724-1.8-1.71l-.5685.824c.60003.41395,1.13034.92013,1.576,1.497Zm1.45,4.258h1c-.00017-.95632-.17259-1.9048-.509-2.8l-.936.35c.29415.78335.44489,1.61325.445,2.45ZM5.3285,3.047c.59027-.3684,1.23263-.64584,1.9055-.823l-.25-.9675c-.84639.2221-1.65024.58263-2.379,1.067l.7235.7235Zm6.0935-.616l.345-.9385c-.89787-.32857-1.84515-.49532-2.80125-.4925v1c.83721-.00252,1.66999.1434,2.45625.431ZM2.215,7.275c.17573-.68856.4558-1.34618.8305-1.95l-.724-.7215c-.49206.74267-.8558,1.56276-1.076,2.426l.9695.2455Zm1.235,5.9935c-.06556-.08545-.1295-.1725-.191-.2605l-.819.5715c.07067.1.14345.20029.2195.3.50496.66201,1.11481,1.23697,1.8,1.71l.568-.8235c-.60074-.41381-1.13345-.91876-1.5775-1.4975Zm-1.45-4.258h-1c.00017.95632.17259,1.9048.509,2.8l.9365-.35c-.29479-.78319-.44571-1.61317-.4455-2.45Zm10.6715,5.9425c-.59055.36821-1.23304.64564-1.906.823l.25.9675c.8457-.22231,1.64885-.58283,2.377-1.067l-.721-.7235Zm-6.094.6155l-.345.939c.89787.32857,1.84515.49532,2.80125.4925v-1c-.83726.0026-1.67008-.14351-2.45625-.4315Z"/>
</svg>