<svg width="18" height="18" viewBox="0 0 18 18" fill="none" xmlns="http://www.w3.org/2000/svg">
<g clip-path="url(#clip0_6201_2768)">
<path d="M15.5 5.65C15.1473 5.57028 14.7838 5.55034 14.4245 5.591C14.622 4.86977 14.622 4.10873 14.4245 3.3875C14.2387 2.70745 13.877 2.08836 13.3758 1.59259C12.8745 1.09682 12.2515 0.741876 11.5695 0.563498C11.008 0.412293 10.4206 0.38285 9.84673 0.477143C9.27287 0.571436 8.7258 0.787287 8.24216 1.11023C7.75852 1.43318 7.34949 1.85576 7.04248 2.34966C6.73546 2.84356 6.53755 3.39738 6.462 3.974C5.91247 3.82787 5.33553 3.81843 4.7815 3.9465C4.15196 4.09462 3.57723 4.41799 3.12383 4.87918C2.67043 5.34037 2.35689 5.92052 2.2195 6.5525C2.10531 7.08758 2.11867 7.64203 2.2585 8.171C1.95437 8.11858 1.6421 8.13983 1.34787 8.23295C1.05364 8.32608 0.786012 8.48837 0.567419 8.70622C0.348827 8.92408 0.185635 9.19116 0.0915214 9.48508C-0.00259266 9.779 -0.0248881 10.0912 0.0265036 10.3955C0.119244 10.8558 0.371002 11.2688 0.737673 11.5622C1.10434 11.8556 1.56254 12.0105 2.032 12H8V7.5C8 7.36739 8.05268 7.24021 8.14645 7.14645C8.24022 7.05268 8.3674 7 8.5 7H9.5C9.63261 7 9.75979 7.05268 9.85356 7.14645C9.94733 7.24021 10 7.36739 10 7.5V12H14.786C15.5773 12.0014 16.3414 11.7109 16.9319 11.184C17.5223 10.6572 17.8977 9.93106 17.9861 9.14468C18.0745 8.3583 17.8698 7.56694 17.4111 6.92212C16.9523 6.2773 16.2719 5.82435 15.5 5.65Z" fill="black"/>
<path d="M8 14H5.85C5.75717 14 5.66815 14.0369 5.60251 14.1025C5.53688 14.1682 5.5 14.2572 5.5 14.35C5.50004 14.3957 5.50922 14.4409 5.527 14.483C5.54477 14.525 5.57078 14.5631 5.6035 14.595L8.8375 17.6675C8.88278 17.7062 8.94041 17.7275 9 17.7275C9.05959 17.7275 9.11722 17.7062 9.1625 17.6675L12.397 14.6C12.4296 14.568 12.4554 14.5299 12.4731 14.4878C12.4908 14.4458 12.4999 14.4006 12.5 14.355C12.5 14.2622 12.4631 14.1732 12.3975 14.1075C12.3319 14.0419 12.2428 14.005 12.15 14.005H10V12H8V14Z" fill="black"/>
</g>
<defs>
<clipPath id="clip0_6201_2768">
<rect width="18" height="18" fill="white"/>
</clipPath>
</defs>
</svg>
