<svg width="18" height="18" viewBox="0 0 18 18" fill="none" xmlns="http://www.w3.org/2000/svg">
<g clip-path="url(#clip0_733_21)">
<path d="M9 1C7.41775 1 5.87103 1.46919 4.55544 2.34824C3.23985 3.22729 2.21447 4.47672 1.60897 5.93853C1.00347 7.40034 0.84504 9.00887 1.15372 10.5607C1.4624 12.1126 2.22433 13.538 3.34315 14.6569C4.46197 15.7757 5.88743 16.5376 7.43928 16.8463C8.99113 17.155 10.5997 16.9965 12.0615 16.391C13.5233 15.7855 14.7727 14.7602 15.6518 13.4446C16.5308 12.129 17 10.5823 17 9C17 6.87827 16.1571 4.84344 14.6569 3.34315C13.1566 1.84285 11.1217 1 9 1ZM9.0235 14.438C8.66712 14.4534 8.31922 14.3265 8.05635 14.0854C7.79347 13.8443 7.63715 13.5086 7.62178 13.1522C7.6064 12.7958 7.73323 12.4479 7.97436 12.1851C8.21549 11.9222 8.55117 11.7659 8.90755 11.7505C8.94619 11.7488 8.98484 11.7488 9.0235 11.7505C9.19513 11.7386 9.3674 11.7607 9.5305 11.8154C9.6936 11.8701 9.84432 11.9565 9.97406 12.0694C10.1038 12.1824 10.21 12.3198 10.2867 12.4738C10.3633 12.6279 10.4088 12.7955 10.4207 12.9671C10.4234 13.0065 10.4244 13.046 10.4235 13.0855C10.4331 13.2697 10.403 13.4539 10.3353 13.6255C10.2677 13.7971 10.164 13.9523 10.0314 14.0804C9.89869 14.2086 9.74008 14.3068 9.56622 14.3685C9.39236 14.4302 9.2073 14.4539 9.0235 14.438ZM10.8065 8.029L10.7065 8.134C10.312 8.5485 9.8645 9.018 9.8645 9.3095C9.86588 9.5458 9.92767 9.77782 10.044 9.9835L10.1165 10.122L10.06 10.3365C10.0365 10.3924 9.99713 10.4401 9.94671 10.4737C9.89629 10.5073 9.8371 10.5253 9.7765 10.5255H8.4355C8.37617 10.5292 8.3167 10.5207 8.26079 10.5005C8.20488 10.4803 8.15372 10.4488 8.1105 10.408C7.83352 10.0457 7.68488 9.60155 7.688 9.1455C7.72718 8.74329 7.84567 8.35283 8.03662 7.99668C8.22757 7.64052 8.4872 7.32574 8.8005 7.0705C8.9005 6.961 8.9955 6.8605 9.088 6.766C9.4025 6.4405 9.5945 6.2305 9.5945 6.0085C9.5945 5.8545 9.5945 5.386 8.7015 5.386C8.14216 5.3868 7.59449 5.54612 7.122 5.8455C7.0726 5.87605 7.01531 5.89139 6.95725 5.88962C6.89919 5.88784 6.84294 5.86902 6.7955 5.8355L6.677 5.751L6.6495 5.5295V4.0795C6.64186 3.99982 6.65612 3.91957 6.69075 3.8474C6.72538 3.77523 6.77906 3.71389 6.846 3.67C7.49921 3.2943 8.24262 3.10413 8.996 3.12C9.35466 3.09159 9.71526 3.13939 10.0541 3.26025C10.393 3.38112 10.7024 3.57231 10.9622 3.82126C11.2219 4.07022 11.426 4.37131 11.5611 4.70476C11.6962 5.03821 11.7592 5.39647 11.746 5.756C11.7548 6.17921 11.6759 6.59965 11.5142 6.99085C11.3525 7.38205 11.1116 7.73552 10.8065 8.029Z" fill="black"/>
</g>
<defs>
<clipPath id="clip0_733_21">
<rect width="18" height="18" fill="white"/>
</clipPath>
</defs>
</svg>
