<?xml version="1.0" encoding="UTF-8"?>
<svg id="Layer_1" xmlns="http://www.w3.org/2000/svg" version="1.1" viewBox="0 0 18 18">
  <!-- Generator: Adobe Illustrator 29.8.1, SVG Export Plug-In . SVG Version: 2.1.1 Build 2)  -->
  <defs>
    <style>
      .st0 {
        fill: #ff13dc;
        fill-opacity: 0;
      }
    </style>
  </defs>
  <rect id="Canvas" class="st0" width="18" height="18"/>
  <path d="M16.5,3H1.5c-.3,0-.5.2-.5.5v11c0,.3.2.5.5.5h15c.3,0,.5-.2.5-.5V3.5c0-.3-.2-.5-.5-.5ZM16,12.7l-2.6-2.6c-.4-.4-1-.4-1.4,0l-1.5,1.5-3.8-3.8c-.4-.4-1-.4-1.4,0l-3.2,3.2v-7h14v8.7Z"/>
  <circle cx="13.4" cy="6.7" r="1.4"/>
</svg>