<svg width="18" height="18" viewBox="0 0 18 18" fill="none" xmlns="http://www.w3.org/2000/svg">
<path d="M9 1C7.41775 1 5.87103 1.46919 4.55544 2.34824C3.23985 3.22729 2.21447 4.47672 1.60897 5.93853C1.00347 7.40034 0.84504 9.00887 1.15372 10.5607C1.4624 12.1126 2.22433 13.538 3.34315 14.6569C4.46197 15.7757 5.88743 16.5376 7.43928 16.8463C8.99113 17.155 10.5997 16.9965 12.0615 16.391C13.5233 15.7855 14.7727 14.7602 15.6518 13.4446C16.5308 12.129 17 10.5823 17 9C17 6.87827 16.1571 4.84344 14.6569 3.34315C13.1566 1.84285 11.1217 1 9 1ZM8.85 3.15C9.2099 3.13034 9.56286 3.25446 9.83124 3.49504C10.0996 3.73563 10.2614 4.07297 10.2811 4.43286C10.2834 4.47587 10.2837 4.51892 10.282 4.562C10.297 4.75384 10.2702 4.94665 10.2035 5.12715C10.1368 5.30765 10.0318 5.47156 9.89574 5.6076C9.75965 5.74364 9.5957 5.84858 9.41518 5.9152C9.23465 5.98182 9.04184 6.00853 8.85 5.9935C8.65893 6.0051 8.46756 5.97601 8.28857 5.90815C8.10957 5.84029 7.94702 5.73521 7.81165 5.59985C7.67629 5.46449 7.57121 5.30194 7.50335 5.12294C7.43549 4.94394 7.4064 4.75258 7.418 4.5615C7.4034 4.2015 7.53241 3.85045 7.77665 3.58556C8.02088 3.32068 8.36033 3.16367 8.72033 3.14907C8.76355 3.14731 8.80678 3.14762 8.85 3.15ZM11 13.5C11 13.6326 10.9473 13.7598 10.8536 13.8536C10.7598 13.9473 10.6326 14 10.5 14H7.5C7.3674 14 7.24022 13.9473 7.14645 13.8536C7.05268 13.7598 7 13.6326 7 13.5V12.5C7 12.3674 7.05268 12.2402 7.14645 12.1464C7.24022 12.0527 7.3674 12 7.5 12H8V9H7.5C7.3674 9 7.24022 8.94732 7.14645 8.85355C7.05268 8.75979 7 8.63261 7 8.5V7.5C7 7.36739 7.05268 7.24021 7.14645 7.14645C7.24022 7.05268 7.3674 7 7.5 7H9.5C9.63261 7 9.75979 7.05268 9.85356 7.14645C9.94733 7.24021 10 7.36739 10 7.5V12H10.5C10.6326 12 10.7598 12.0527 10.8536 12.1464C10.9473 12.2402 11 12.3674 11 12.5V13.5Z" fill="black"/>
</svg>
