<svg width="18" height="18" viewBox="0 0 18 18" fill="none" xmlns="http://www.w3.org/2000/svg">
<g clip-path="url(#clip0_6225_449)">
<path d="M9 1C7.41775 1 5.87103 1.46919 4.55544 2.34824C3.23985 3.22729 2.21447 4.47672 1.60897 5.93853C1.00347 7.40034 0.84504 9.00887 1.15372 10.5607C1.4624 12.1126 2.22433 13.538 3.34315 14.6569C4.46197 15.7757 5.88743 16.5376 7.43928 16.8463C8.99113 17.155 10.5997 16.9965 12.0615 16.391C13.5233 15.7855 14.7727 14.7602 15.6518 13.4446C16.5308 12.129 17 10.5823 17 9C17 6.87827 16.1571 4.84344 14.6569 3.34315C13.1566 1.84285 11.1217 1 9 1ZM14 9.5C14 9.63261 13.9473 9.75979 13.8536 9.85355C13.7598 9.94732 13.6326 10 13.5 10H10V13.5C10 13.6326 9.94733 13.7598 9.85356 13.8536C9.75979 13.9473 9.63261 14 9.5 14H8.5C8.3674 14 8.24022 13.9473 8.14645 13.8536C8.05268 13.7598 8 13.6326 8 13.5V10H4.5C4.3674 10 4.24022 9.94732 4.14645 9.85355C4.05268 9.75979 4 9.63261 4 9.5V8.5C4 8.36739 4.05268 8.24021 4.14645 8.14645C4.24022 8.05268 4.3674 8 4.5 8H8V4.5C8 4.36739 8.05268 4.24021 8.14645 4.14645C8.24022 4.05268 8.3674 4 8.5 4H9.5C9.63261 4 9.75979 4.05268 9.85356 4.14645C9.94733 4.24021 10 4.36739 10 4.5V8H13.5C13.6326 8 13.7598 8.05268 13.8536 8.14645C13.9473 8.24021 14 8.36739 14 8.5V9.5Z" fill="black"/>
</g>
<defs>
<clipPath id="clip0_6225_449">
<rect width="18" height="18" fill="white"/>
</clipPath>
</defs>
</svg>
