<?xml version="1.0" encoding="UTF-8"?>
<svg id="Layer_1" xmlns="http://www.w3.org/2000/svg" version="1.1" viewBox="0 0 18 18">
  <!-- Generator: Adobe Illustrator 29.8.3, SVG Export Plug-In . SVG Version: 2.1.1 Build 3)  -->
  <defs>
    <style>
      .st0 {
        fill: #ff13dc;
        fill-opacity: 0;
      }

      .st1 {
        fill: #464646;
      }
    </style>
  </defs>
  <rect id="Canvas" class="st0" width="18" height="18"/>
  <rect class="st1" x="2" y="10" width="1" height="2.5"/>
  <rect class="st1" x="2" y="6" width="1" height="2.5"/>
  <path class="st1" d="M3,15v-1h-1v1.5555c0,.245491.1990094.4445.4445.4445h2.0555v-1h-1.5Z"/>
  <rect class="st1" x="6" y="15" width="2.5" height="1"/>
  <rect class="st1" x="10" y="15" width="2.5" height="1"/>
  <rect class="st1" x="15" y="5.5" width="1" height="2.5"/>
  <rect class="st1" x="15" y="9.5" width="1" height="2.5"/>
  <path class="st1" d="M15,13.5v1.5h-1v1h1.5c.2761421,0,.5-.2238579.5-.5v-2h-1Z"/>
  <path class="st1" d="M15.5559998,2h-2.0559998v1h1.5v1h1v-1.5555c0-.2452955-.1987047-.4442241-.4440002-.4445Z"/>
  <rect class="st1" x="9.5" y="2" width="2.5004997" height="1"/>
  <rect class="st1" x="5.5" y="2" width="2.5004997" height="1"/>
  <path class="st1" d="M4,2h-1.5c-.2761424,0-.5.2238576-.5.5v2h1v-1.5h1v-1Z"/>
  <g>
    <polygon class="st1" points="7.3535156 8.1464844 6.2070312 7 13 7 13 6 6.2070312 6 7.3535156 4.8535156 6.6464844 4.1464844 4.2929688 6.5 6.6464844 8.8535156 7.3535156 8.1464844"/>
    <polygon class="st1" points="11.3535156 9.1464844 10.6464844 9.8535156 11.7929688 11 5 11 5 12 11.7929688 12 10.6464844 13.1464844 11.3535156 13.8535156 13.7070312 11.5 11.3535156 9.1464844"/>
  </g>
</svg>