<svg width="18" height="18" viewBox="0 0 18 18" fill="none" xmlns="http://www.w3.org/2000/svg">
<g clip-path="url(#clip0_6389_17)">
<path d="M15.656 3.8625L14.9285 3.296C14.8239 3.21508 14.6916 3.17886 14.5604 3.19525C14.4292 3.21165 14.3099 3.27933 14.2285 3.3835L7.41099 12.1415L4.08749 8.8355C3.99372 8.74176 3.86657 8.68911 3.73399 8.68911C3.60141 8.68911 3.47425 8.74176 3.38049 8.8355L2.71799 9.5C2.62425 9.59376 2.57159 9.72092 2.57159 9.8535C2.57159 9.98608 2.62425 10.1132 2.71799 10.207L7.18099 14.657C7.23113 14.7074 7.29146 14.7466 7.35794 14.7719C7.42442 14.7971 7.49553 14.8079 7.56651 14.8035C7.6375 14.7991 7.70673 14.7796 7.76958 14.7463C7.83243 14.7131 7.88746 14.6667 7.93099 14.6105L15.7435 4.564C15.8249 4.45936 15.8614 4.32668 15.845 4.19513C15.8286 4.06359 15.7606 3.94394 15.656 3.8625Z" fill="black"/>
</g>
<defs>
<clipPath id="clip0_6389_17">
<rect width="18" height="18" fill="white"/>
</clipPath>
</defs>
</svg>
