<svg width="16" height="16" viewBox="0 0 16 16" fill="none" xmlns="http://www.w3.org/2000/svg">
<g clip-path="url(#clip0_6484_447)">
<rect x="7.5" y="5.5" width="1" height="1" fill="black"/>
<rect x="7.5" y="3.5" width="1" height="1" fill="black"/>
<rect x="7.5" y="9.5" width="1" height="1" fill="black"/>
<path d="M6.5 7.5V8.5H4.41504L5.70508 9.79492L5 10.5L2.5 8L5 5.5L5.70508 6.20508L4.41504 7.5H6.5ZM8.5 7.5V8.5H7.5L7.5 7.5H8.5ZM10.2949 6.20508L11 5.5L13.5 8L11 10.5L10.2949 9.79492L11.585 8.5H9.5V7.5H11.585L10.2949 6.20508Z" fill="black"/>
<rect x="7.5" y="11.5" width="1" height="1" fill="black"/>
<path d="M14 15H2C1.73488 14.9997 1.4807 14.8942 1.29323 14.7068C1.10576 14.5193 1.0003 14.2651 1 14V2C1.0003 1.73488 1.10576 1.4807 1.29323 1.29323C1.4807 1.10576 1.73488 1.0003 2 1H14C14.2651 1.00028 14.5193 1.10572 14.7068 1.2932C14.8943 1.48068 14.9997 1.73487 15 2V14C14.9997 14.2651 14.8943 14.5193 14.7068 14.7068C14.5193 14.8943 14.2651 14.9997 14 15ZM2 2V14H14V2H2Z" fill="black"/>
</g>
<defs>
<clipPath id="clip0_6484_447">
<rect width="16" height="16" fill="white"/>
</clipPath>
</defs>
</svg>
