<svg width="16" height="16" viewBox="0 0 16 16" fill="none" xmlns="http://www.w3.org/2000/svg">
<g clip-path="url(#clip0_6484_460)">
<path d="M5.00391 10.2432L6.62305 8.62305L7.37598 9.37598L5.75684 10.9961L7.5 11V12H4V8.5H5L5.00391 10.2432ZM12 12H8.5V11L10.2432 10.9961L8.62305 9.37598L9.37598 8.62305L10.9961 10.2432L11 8.5H12V12ZM7.5 5L5.75684 5.00391L7.37598 6.62305L6.62305 7.37598L5.00391 5.75684L5 7.5H4V4H7.5V5ZM12 7.5H11L10.9961 5.75684L9.37598 7.37598L8.62305 6.62305L10.2432 5.00391L8.5 5V4H12V7.5Z" fill="black"/>
<path d="M14 15H2C1.73488 14.9997 1.4807 14.8942 1.29323 14.7068C1.10576 14.5193 1.0003 14.2651 1 14V2C1.0003 1.73488 1.10576 1.4807 1.29323 1.29323C1.4807 1.10576 1.73488 1.0003 2 1H14C14.2651 1.00028 14.5193 1.10572 14.7068 1.2932C14.8943 1.48068 14.9997 1.73487 15 2V14C14.9997 14.2651 14.8943 14.5193 14.7068 14.7068C14.5193 14.8943 14.2651 14.9997 14 15ZM2 2V14H14V2H2Z" fill="black"/>
<rect x="7.5" y="7.5" width="1" height="1" fill="black"/>
</g>
<defs>
<clipPath id="clip0_6484_460">
<rect width="16" height="16" fill="white"/>
</clipPath>
</defs>
</svg>
