<svg width="16" height="16" viewBox="0 0 16 16" fill="none" xmlns="http://www.w3.org/2000/svg">
<g clip-path="url(#clip0_6484_469)">
<path d="M14 15H2C1.73488 14.9997 1.4807 14.8942 1.29323 14.7068C1.10576 14.5193 1.0003 14.2651 1 14V2C1.0003 1.73488 1.10576 1.4807 1.29323 1.29323C1.4807 1.10576 1.73488 1.0003 2 1H14C14.2651 1.00028 14.5193 1.10572 14.7068 1.2932C14.8943 1.48068 14.9997 1.73487 15 2V14C14.9997 14.2651 14.8943 14.5193 14.7068 14.7068C14.5193 14.8943 14.2651 14.9997 14 15ZM2 2V14H14V2H2Z" fill="black"/>
<path d="M8.51758 11.6025L9.71875 10.4062L10.4062 11.0938L8 13.5L5.59375 11.0938L6.28125 10.4062L7.48242 11.6025V9.5H8.51758V11.6025ZM5.59375 6.28125L4.39746 7.48242H6.5V8.51758H4.39746L5.59375 9.71875L4.90625 10.4062L2.5 8L4.90625 5.59375L5.59375 6.28125ZM13.5 8L11.0938 10.4062L10.4062 9.71875L11.6025 8.51758H9.5V7.48242H11.6025L10.4062 6.28125L11.0938 5.59375L13.5 8ZM10.4062 4.90625L9.71875 5.59375L8.51758 4.39746V6.5H7.48242V4.39746L6.28125 5.59375L5.59375 4.90625L8 2.5L10.4062 4.90625Z" fill="black"/>
<rect x="7.5" y="7.5" width="1" height="1" fill="black"/>
</g>
<defs>
<clipPath id="clip0_6484_469">
<rect width="16" height="16" fill="white"/>
</clipPath>
</defs>
</svg>
