<svg width="16" height="16" viewBox="0 0 16 16" fill="none" xmlns="http://www.w3.org/2000/svg">
<g clip-path="url(#clip0_6484_478)">
<path d="M14 15H2C1.73488 14.9997 1.4807 14.8942 1.29323 14.7068C1.10576 14.5193 1.0003 14.2651 1 14V2C1.0003 1.73488 1.10576 1.4807 1.29323 1.29323C1.4807 1.10576 1.73488 1.0003 2 1H14C14.2651 1.00028 14.5193 1.10572 14.7068 1.2932C14.8943 1.48068 14.9997 1.73487 15 2V14C14.9997 14.2651 14.8943 14.5193 14.7068 14.7068C14.5193 14.8943 14.2651 14.9997 14 15ZM2 2V14H14V2H2Z" fill="black"/>
<rect x="5.5" y="8.5" width="1" height="1" transform="rotate(-90 5.5 8.5)" fill="black"/>
<rect x="3.5" y="8.5" width="1" height="1" transform="rotate(-90 3.5 8.5)" fill="black"/>
<rect x="9.5" y="8.5" width="1" height="1" transform="rotate(-90 9.5 8.5)" fill="black"/>
<path d="M7.5 9.5L8.5 9.5L8.5 11.585L9.79492 10.2949L10.5 11L8 13.5L5.5 11L6.20508 10.2949L7.5 11.585L7.5 9.5ZM7.5 7.5L8.5 7.5L8.5 8.5L7.5 8.5L7.5 7.5ZM6.20508 5.70508L5.5 5L8 2.5L10.5 5L9.79492 5.70508L8.5 4.41504L8.5 6.5L7.5 6.5L7.5 4.41504L6.20508 5.70508Z" fill="black"/>
<rect x="11.5" y="8.5" width="1" height="1" transform="rotate(-90 11.5 8.5)" fill="black"/>
</g>
<defs>
<clipPath id="clip0_6484_478">
<rect width="16" height="16" fill="white"/>
</clipPath>
</defs>
</svg>
