<svg width="16" height="16" viewBox="0 0 16 16" fill="none" xmlns="http://www.w3.org/2000/svg">
<g clip-path="url(#clip0_6484_548)">
<path d="M14 15H2C1.73488 14.9997 1.4807 14.8942 1.29323 14.7068C1.10576 14.5193 1.0003 14.2651 1 14V2C1.0003 1.73488 1.10576 1.4807 1.29323 1.29323C1.4807 1.10576 1.73488 1.0003 2 1H14C14.2651 1.00028 14.5193 1.10572 14.7068 1.2932C14.8943 1.48068 14.9997 1.73487 15 2V14C14.9997 14.2651 14.8943 14.5193 14.7068 14.7068C14.5193 14.8943 14.2651 14.9997 14 15ZM2 2V14H14V2H2Z" fill="black"/>
<rect x="7.5" y="7.5" width="1" height="1" fill="black"/>
<rect x="10.1213" y="5.17157" width="1" height="7" transform="rotate(45 10.1213 5.17157)" fill="black"/>
<rect x="5.17157" y="5.87868" width="1" height="7" transform="rotate(-45 5.17157 5.87868)" fill="black"/>
</g>
<defs>
<clipPath id="clip0_6484_548">
<rect width="16" height="16" fill="white"/>
</clipPath>
</defs>
</svg>
