<?xml version="1.0" encoding="UTF-8"?>
<svg xmlns="http://www.w3.org/2000/svg" xmlns:xlink="http://www.w3.org/1999/xlink" version="1.1" viewBox="0 0 18 18">
  <!-- Generator: Adobe Illustrator 30.0.0, SVG Export Plug-In . SVG Version: 2.1.1 Build 123)  -->
  <defs>
    <style>
      .st0, .st1, .st2 {
        fill: none;
      }

      .st1 {
        stroke-linecap: round;
      }

      .st1, .st2 {
        stroke: #000;
        stroke-miterlimit: 10;
      }

      .st3 {
        fill-rule: evenodd;
      }

      .st4 {
        clip-path: url(#clippath);
      }
    </style>
    <clipPath id="clippath">
      <rect class="st0" width="18" height="18"/>
    </clipPath>
  </defs>
  <g id="Layer_1">
    <g class="st4">
      <path class="st3" d="M16.9200001,4.3200002c-.0300007-.0800004-.0799999-.1600003-.1399994-.2200003l-2.8800011-2.8799999c-.0599995-.0600001-.1199999-.1-.1999998-.13-.0699997-.0300001-.1499996-.0500001-.2299995-.0400001h-.0200005c-.1700001,0-.3400002.08-.46.2l-2.0500002,2.05,3.7700005,3.7700002,2.0500002-2.0500002c.1199989-.1199999.1900005-.27.1999989-.4400001,0-.0900002,0-.1700001-.039999-.2599998Z"/>
    </g>
  </g>
  <g id="Layer_2">
    <path class="st2" d="M2.9999971,15.9999995l1.0000012-1.000001c.1875365-.1875362.4418914-.2928934.7071083-.2928934l.7302375.000001c.5363908.000001,1.0503011-.2154589,1.4263144-.5979881l6.1363416-6.109118-3-3-6.1091194,6.1363435c-.3825293.3760118-.5979886.8899212-.5979886,1.4263115v.7302399c0,.2652168-.1053567.5195704-.2928932.7071066l-.9999988.999999"/>
    <line class="st1" x1="10.5" y1="3" x2="15" y2="7.5"/>
    <path class="st2" d="M2,15.0000005c-.2761418.2761418-.2761418.7238562,0,.9999981s.7238562.2761418.9999981,0"/>
  </g>
</svg>