<svg width="18" height="18" viewBox="0 0 18 18" fill="none" xmlns="http://www.w3.org/2000/svg">
<g clip-path="url(#clip0_685_86)">
<path d="M16.8635 11.836C16.7041 10.72 16.4861 9.61313 16.2105 8.52C15.8985 7.302 14.751 7.03 13.5405 6.866L9.487 2.8125C9.4406 2.76605 9.3855 2.72918 9.32485 2.70402C9.2642 2.67886 9.19919 2.66589 9.13353 2.66586C9.06786 2.66582 9.00284 2.67872 8.94216 2.70381C8.88148 2.72891 8.82635 2.76571 8.77989 2.81211L7.5675 4.0275L10.0035 6.4635C10.1464 6.60172 10.2286 6.79104 10.232 6.98984C10.2354 7.18864 10.1597 7.38066 10.0216 7.52367C9.88345 7.66668 9.69418 7.749 9.49538 7.75251C9.29658 7.75603 9.10452 7.68046 8.96142 7.54242L8.943 7.524L6.507 5.088L0.928 10.667C0.881545 10.7134 0.844684 10.7685 0.819523 10.8292C0.794362 10.8898 0.781393 10.9548 0.781357 11.0205C0.781321 11.0861 0.794218 11.1512 0.819312 11.2118C0.844406 11.2725 0.881206 11.3277 0.92761 11.3741L6.3045 16.744C6.39826 16.8377 6.52542 16.8904 6.658 16.8904C6.79058 16.8904 6.91774 16.8377 7.0115 16.744L14.797 8.947C14.8896 8.85452 14.9423 8.72941 14.9437 8.59853C14.9451 8.46765 14.8951 8.34144 14.8045 8.247C14.8272 8.23072 14.8533 8.21966 14.8807 8.2146C14.9082 8.20954 14.9365 8.21061 14.9635 8.21772C14.9905 8.22484 15.0157 8.23782 15.0371 8.25576C15.0585 8.2737 15.0757 8.29615 15.0875 8.3215C15.2489 8.77728 15.309 9.26279 15.2634 9.74416C15.2178 10.2255 15.0676 10.6911 14.8235 11.1085C14.4921 11.6028 14.2566 12.1551 14.1295 12.7365C14.1069 12.9249 14.1272 13.1159 14.1889 13.2953C14.2506 13.4748 14.352 13.6379 14.4857 13.7726C14.6193 13.9072 14.7817 14.0099 14.9606 14.0729C15.1396 14.1359 15.3305 14.1577 15.519 14.1365C16.34 14.137 17.0165 13.3665 16.8635 11.836Z" fill="black"/>
<path d="M7.5655 4.025L4.7 1.1585C4.55924 1.0183 4.36862 0.939638 4.16995 0.939766C3.97128 0.939894 3.78076 1.0188 3.64018 1.15918C3.4996 1.29957 3.42042 1.48997 3.42002 1.68864C3.41961 1.88731 3.498 2.07804 3.638 2.219L6.5045 5.0855L7.5655 4.025Z" fill="black"/>
</g>
<defs>
<clipPath id="clip0_685_86">
<rect width="18" height="18" fill="white"/>
</clipPath>
</defs>
</svg>
