<svg width="18" height="18" viewBox="0 0 18 18" fill="none" xmlns="http://www.w3.org/2000/svg">
<g id="hand-icon" clip-path="url(#clip0_689_2)">
<path d="M17.055 4.8785C16.7586 4.82823 16.4539 4.87916 16.19 5.0231C15.9261 5.16703 15.7182 5.3956 15.6 5.672L13.9665 8.196C13.8475 8.436 13.5415 8.6595 13.324 8.565C13.1065 8.4705 13.0465 8.215 13.1565 7.8095L13.942 3.1965C13.9873 3.02909 13.9954 2.85381 13.9659 2.68292C13.9363 2.51203 13.8699 2.34965 13.771 2.20712C13.6722 2.0646 13.5435 1.94538 13.3938 1.85779C13.2441 1.77019 13.0771 1.71634 12.9045 1.7C12.6152 1.68118 12.3284 1.76481 12.0946 1.93623C11.8607 2.10765 11.6946 2.35591 11.6255 2.6375L10.8755 6.9375C10.8755 6.9375 10.821 7.496 10.3755 7.477C9.93 7.458 9.9785 6.8865 9.9785 6.8865V1.857C9.98497 1.54133 9.86577 1.23601 9.64713 1.00822C9.42849 0.780429 9.12832 0.648821 8.81265 0.64235C8.49697 0.635879 8.19166 0.755073 7.96387 0.973713C7.73607 1.19235 7.60447 1.49253 7.598 1.8082C7.59767 1.82446 7.59767 1.84073 7.598 1.857V6.8675C7.598 7.182 7.1195 7.174 7.0305 6.9175C6.621 5.723 5.7205 3.0205 5.7205 3.0205C5.63369 2.74418 5.45253 2.50716 5.20868 2.35087C4.96484 2.19458 4.67382 2.12897 4.3865 2.1655C4.2156 2.19334 4.05282 2.2581 3.9095 2.35526C3.76618 2.45242 3.64576 2.57965 3.55662 2.72809C3.46748 2.87653 3.41176 3.04262 3.39335 3.21478C3.37493 3.38695 3.39426 3.56106 3.45 3.725L5.072 8.442C5.13941 8.65104 5.18958 8.86526 5.222 9.0825C5.27415 9.28827 5.25892 9.50533 5.17855 9.7018C5.09818 9.89827 4.95691 10.0638 4.7755 10.174C4.544 10.3065 2.3335 8.6145 2.156 8.535C1.121 7.935 0.468496 8.189 0.184496 8.526C-0.143004 8.914 0.0844962 9.551 0.557996 10.042L4.0415 13.9965C4.24995 14.2339 4.43686 14.4894 4.6 14.76C4.84 15.1769 5.11428 15.5731 5.42 15.9445C5.90887 16.4371 6.49965 16.8167 7.15085 17.0566C7.80205 17.2966 8.49789 17.3911 9.1895 17.3335C11.4055 17.3335 13.0495 16.4865 13.634 15.1115C14.0305 13.9615 14.4065 12.4075 14.5865 11.867C14.704 11.514 17.5865 6.454 17.5865 6.454C17.6798 6.32159 17.7406 6.16904 17.7639 6.00872C17.7872 5.84841 17.7724 5.68486 17.7206 5.53135C17.6688 5.37785 17.5816 5.23873 17.4659 5.1253C17.3503 5.01186 17.2095 4.9273 17.055 4.8785Z" fill="#000000"/>
</g>
<defs>
<clipPath id="clip0_689_2">
<rect width="18" height="18" fill="white"/>
</clipPath>
</defs>
</svg>
