<svg width="18" height="18" viewBox="0 0 18 18" fill="none" xmlns="http://www.w3.org/2000/svg">
<g clip-path="url(#clip0_708_17)">
<path d="M4.345 7H16.6125L14.2795 14H2L4.345 7ZM6.9645 2H2C1.73478 2 1.48043 2.10536 1.29289 2.29289C1.10536 2.48043 1 2.73478 1 3V14.5C1 14.6326 1.05268 14.7598 1.14645 14.8536C1.24021 14.9473 1.36739 15 1.5 15H14.6395C14.7445 15 14.8468 14.967 14.932 14.9056C15.0171 14.8442 15.0808 14.7576 15.114 14.658L17.7805 6.658C17.8055 6.58287 17.8123 6.50288 17.8004 6.4246C17.7885 6.34632 17.7581 6.272 17.7118 6.20775C17.6655 6.1435 17.6047 6.09116 17.5342 6.05504C17.4637 6.01893 17.3857 6.00006 17.3065 6H16V4.5C16 4.36739 15.9473 4.24021 15.8536 4.14645C15.7598 4.05268 15.6326 4 15.5 4L9.334 4.0035L7.684 2.3035C7.59056 2.20724 7.47871 2.13076 7.3551 2.07862C7.23149 2.02648 7.09866 1.99974 6.9645 2Z" fill="black"/>
</g>
<defs>
<clipPath id="clip0_708_17">
<rect width="18" height="18" fill="white"/>
</clipPath>
</defs>
</svg>
