<?xml version="1.0" encoding="UTF-8"?>
<svg width="18" height="18" viewBox="0 0 18 18" fill="none" xmlns="http://www.w3.org/2000/svg">
  <path d="M17,9c-.0000687-.0576029-.0200253-.1134148-.0564995-.158l-.9435005-.8275003-.0165005-.0144997-1.0564995-.9264998c-.0465717-.0475178-.110467-.0740504-.177-.0735002-.1380711,0-.25.1119289-.25.25v.75h-4.5V3.5h.75c.1380711,0,.25-.1119287.25-.25.0000687-.0658514-.0264311-.1289458-.0734997-.175l-.9265003-1.0585001-.0144997-.0165-.8275003-.9435c-.091979-.0750105-.224021-.0750105-.316,0l-.8275003.9435-.0144997.0165-.9264998,1.0565c-.0475674.0465384-.0741096.1104558-.0735002.177,0,.1380713.1119289.25.25.25h.75v4.5H3.5v-.75c0-.1380711-.1119287-.25-.25-.25-.0658398-.0000095-.1289122.0264812-.175.0735002l-1.0585001.9264998-.0165.0144997-.9435.8275003c-.0750105.091979-.0750105.224021,0,.316l.9435.8275003.0165.0144997,1.0565.9259996c.0465224.0476513.1104057.0743589.177.0740004.1380713,0,.25-.1119289.25-.25v-.75h4.5v4.5h-.75c-.1380711,0-.25.1119289-.25.25-.0001779.0658731.0263391.1290092.0735002.1750002l.9264998,1.0584993.0144997.0165005.8275003.9435005c.091979.0750103.224021.0750103.316,0l.8275003-.9435005.0144997-.0165005.9265003-1.0570002c.0475397-.0463514.0740891-.1101055.0734997-.1764994,0-.1380711-.1119289-.25-.25-.25h-.75v-4.5h4.5v.75c0,.1380711.1119289.25.25.25.0659018-.0001774.1289644-.026844.1750002-.0740004l1.0584993-.9259996.0165005-.0144997.9435005-.8275003c.0364742-.0445852.0564308-.1003971.0564995-.158Z" fill="black"/>
</svg>