<svg width="18" height="18" viewBox="0 0 18 18" fill="none" xmlns="http://www.w3.org/2000/svg">
<g clip-path="url(#clip0_710_33)">
<path d="M2.66851 6.271C3.63703 5.43038 4.88225 4.97767 6.16451 5H12.5V2.4C12.5 2.29391 12.5421 2.19217 12.6172 2.11716C12.6922 2.04214 12.7939 2 12.9 2C12.9972 1.99966 13.091 2.03528 13.1635 2.1L16.9255 5.8225C16.9713 5.86923 16.997 5.93206 16.997 5.9975C16.997 6.06294 16.9713 6.12577 16.9255 6.1725L13.166 9.9C13.0935 9.96472 12.9997 10.0003 12.9025 10C12.7964 10 12.6947 9.95786 12.6197 9.88284C12.5446 9.80783 12.5025 9.70609 12.5025 9.6V7H6.06151C5.26873 6.98794 4.50204 7.28312 3.92203 7.82371C3.34202 8.36429 2.99369 9.10834 2.95001 9.9C2.92932 10.2861 2.98488 10.6725 3.11353 11.0372C3.24218 11.4018 3.44139 11.7376 3.69979 12.0252C3.9582 12.3129 4.27073 12.5468 4.61954 12.7137C4.96835 12.8806 5.34662 12.9771 5.73275 12.9978C5.82176 13.0026 5.91085 13.0033 6.00001 13H9.50001C9.63261 13 9.75979 13.0527 9.85356 13.1464C9.94733 13.2402 10 13.3674 10 13.5V14.5C10 14.6326 9.94733 14.7598 9.85356 14.8536C9.75979 14.9473 9.63261 15 9.50001 15H6.23701C4.9659 15.0216 3.73144 14.5739 2.7697 13.7425C1.80796 12.9111 1.18644 11.7544 1.02401 10.4935C0.944092 9.70974 1.05151 8.9182 1.33742 8.18408C1.62333 7.44996 2.07955 6.79427 2.66851 6.271Z" fill="black"/>
</g>
<defs>
<clipPath id="clip0_710_33">
<rect width="18" height="18" fill="white"/>
</clipPath>
</defs>
</svg>
