<svg width="18" height="18" viewBox="0 0 18 18" fill="none" xmlns="http://www.w3.org/2000/svg">
<g clip-path="url(#clip0_6515_150)">
<path d="M2 10H1V13H2V10Z" fill="black"/>
<path d="M2 5H1V8H2V5Z" fill="black"/>
<path d="M2 16V15H1V16.5555C1 16.6734 1.04683 16.7864 1.13019 16.8698C1.21355 16.9532 1.32661 17 1.4445 17H3V16H2Z" fill="black"/>
<path d="M8 16H5V17H8V16Z" fill="black"/>
<path d="M17 5H16V8H17V5Z" fill="black"/>
<path d="M16.5555 1H15V2H16V3H17V1.4445C17 1.32661 16.9532 1.21355 16.8698 1.13019C16.7864 1.04683 16.6734 1 16.5555 1Z" fill="black"/>
<path d="M13 1H10V2H13V1Z" fill="black"/>
<path d="M8 1H5V2H8V1Z" fill="black"/>
<path d="M3 1H1.5C1.36739 1 1.24021 1.05268 1.14645 1.14645C1.05268 1.24021 1 1.36739 1 1.5V3H2V2H3V1Z" fill="black"/>
<path d="M17.442 12.342L15.4265 10.5735C15.4035 10.55 15.3761 10.5314 15.3457 10.5188C15.3154 10.5062 15.2828 10.4998 15.25 10.5C15.1837 10.5 15.1201 10.5263 15.0732 10.5732C15.0263 10.6201 15 10.6837 15 10.75V12H13V10H14.25C14.3163 10 14.3799 9.97367 14.4268 9.92678C14.4737 9.8799 14.5 9.81631 14.5 9.75001C14.4999 9.71738 14.4934 9.68509 14.4807 9.65504C14.4679 9.62499 14.4494 9.59778 14.426 9.57501L12.658 7.55851C12.6133 7.52199 12.5574 7.50204 12.4998 7.50204C12.4421 7.50204 12.3862 7.52199 12.3415 7.55851L10.5735 9.57501C10.5502 9.5978 10.5317 9.62503 10.5191 9.65508C10.5065 9.68514 10.5 9.71741 10.5 9.75001C10.5 9.81631 10.5263 9.8799 10.5732 9.92678C10.6201 9.97367 10.6837 10 10.75 10H12V12H10V10.75C10 10.6837 9.97366 10.6201 9.92678 10.5732C9.87989 10.5263 9.81631 10.5 9.75 10.5C9.7174 10.5 9.68513 10.5065 9.65508 10.5191C9.62502 10.5317 9.5978 10.5502 9.575 10.5735L7.558 12.342C7.52162 12.3866 7.50174 12.4424 7.50174 12.5C7.50174 12.5576 7.52162 12.6134 7.558 12.658L9.575 14.426C9.59777 14.4494 9.62498 14.468 9.65504 14.4807C9.68509 14.4934 9.71737 14.4999 9.75 14.5C9.81631 14.5 9.87989 14.4737 9.92678 14.4268C9.97366 14.3799 10 14.3163 10 14.25V13H12V15H10.75C10.6837 15 10.6201 15.0263 10.5732 15.0732C10.5263 15.1201 10.5 15.1837 10.5 15.25C10.4999 15.2826 10.5064 15.3149 10.519 15.345C10.5316 15.375 10.5502 15.4022 10.5735 15.425L12.3415 17.442C12.3862 17.4785 12.4421 17.4985 12.4998 17.4985C12.5574 17.4985 12.6133 17.4785 12.658 17.442L14.426 15.425C14.4494 15.4023 14.468 15.3751 14.4807 15.345C14.4934 15.3149 14.5 15.2826 14.5 15.25C14.5 15.1837 14.4737 15.1201 14.4268 15.0732C14.3799 15.0263 14.3163 15 14.25 15H13V13H15V14.25C15 14.3163 15.0263 14.3799 15.0732 14.4268C15.1201 14.4737 15.1837 14.5 15.25 14.5C15.2826 14.4999 15.3149 14.4934 15.345 14.4807C15.375 14.468 15.4022 14.4494 15.425 14.426L17.442 12.658C17.4784 12.6134 17.4983 12.5576 17.4983 12.5C17.4983 12.4424 17.4784 12.3866 17.442 12.342Z" fill="black"/>
</g>
<defs>
<clipPath id="clip0_6515_150">
<rect width="18" height="18" fill="white"/>
</clipPath>
</defs>
</svg>
