<svg width="18" height="18" viewBox="0 0 18 18" fill="none" xmlns="http://www.w3.org/2000/svg">
<g clip-path="url(#clip0_709_25)">
<path d="M15.3315 6.271C14.363 5.43038 13.1178 4.97767 11.8355 5H5.50001V2.4C5.50001 2.29391 5.45787 2.19217 5.38286 2.11716C5.30784 2.04214 5.2061 2 5.10001 2C5.00285 1.99966 4.90899 2.03528 4.83651 2.1L1.07201 5.8245C1.02621 5.87123 1.00055 5.93406 1.00055 5.9995C1.00055 6.06494 1.02621 6.12777 1.07201 6.1745L4.83401 9.9C4.90649 9.96472 5.00035 10.0003 5.09751 10C5.2036 10 5.30534 9.95786 5.38036 9.88284C5.45537 9.80783 5.49751 9.70609 5.49751 9.6V7H11.9385C12.7313 6.98794 13.498 7.28312 14.078 7.82371C14.658 8.36429 15.0063 9.10834 15.05 9.9C15.0707 10.2861 15.0151 10.6725 14.8865 11.0372C14.7578 11.4018 14.5586 11.7376 14.3002 12.0252C14.0418 12.3129 13.7293 12.5468 13.3805 12.7137C13.0317 12.8806 12.6534 12.9771 12.2673 12.9978C12.1783 13.0026 12.0892 13.0033 12 13H8.50001C8.36741 13 8.24023 13.0527 8.14646 13.1464C8.05269 13.2402 8.00001 13.3674 8.00001 13.5V14.5C8.00001 14.6326 8.05269 14.7598 8.14646 14.8536C8.24023 14.9473 8.36741 15 8.50001 15H11.763C13.0341 15.0216 14.2686 14.5739 15.2303 13.7425C16.1921 12.9111 16.8136 11.7544 16.976 10.4935C17.0559 9.70974 16.9485 8.9182 16.6626 8.18408C16.3767 7.44996 15.9205 6.79427 15.3315 6.271Z" fill="black"/>
</g>
<defs>
<clipPath id="clip0_709_25">
<rect width="18" height="18" fill="white"/>
</clipPath>
</defs>
</svg>
