<svg width="18" height="18" viewBox="0 0 18 18" fill="none" xmlns="http://www.w3.org/2000/svg">
<g clip-path="url(#clip0_685_34)">
<path d="M17.587 16.1075L13.628 12.15C14.6788 10.7258 15.1525 8.95707 14.9541 7.19832C14.7557 5.43958 13.8999 3.82082 12.5582 2.66653C11.2165 1.51224 9.48807 0.907735 7.71941 0.974192C5.95076 1.04065 4.27259 1.77316 3.02129 3.02488C1.76999 4.2766 1.03805 5.95502 0.972194 7.72369C0.906335 9.49237 1.51142 11.2206 2.66617 12.5619C3.82091 13.9032 5.43996 14.7585 7.19877 14.9563C8.95759 15.1541 10.7262 14.6798 12.15 13.6285L16.108 17.5865C16.3093 17.7547 16.5661 17.8414 16.8281 17.8297C17.0901 17.818 17.3383 17.7087 17.5237 17.5232C17.7092 17.3378 17.8185 17.0896 17.8302 16.8276C17.8419 16.5656 17.7552 16.3088 17.587 16.1075ZM3 8C3 7.01109 3.29324 6.04439 3.84265 5.22215C4.39206 4.3999 5.17295 3.75904 6.08658 3.3806C7.00021 3.00216 8.00555 2.90315 8.97545 3.09607C9.94536 3.289 10.8363 3.7652 11.5355 4.46447C12.2348 5.16373 12.711 6.05464 12.9039 7.02455C13.0969 7.99445 12.9978 8.99979 12.6194 9.91342C12.241 10.827 11.6001 11.6079 10.7779 12.1573C9.95561 12.7068 8.98891 13 8 13C6.67392 13 5.40215 12.4732 4.46447 11.5355C3.52678 10.5979 3 9.32608 3 8Z" fill="black"/>
</g>
<defs>
<clipPath id="clip0_685_34">
<rect width="18" height="18" fill="white"/>
</clipPath>
</defs>
</svg>
